<svg width="32" height="32" viewBox="0 0 32 32" fill="none" xmlns="http://www.w3.org/2000/svg">
<path d="M14.7652 2.50783C15.1889 1.36082 16.8111 1.36082 17.2348 2.50783C17.9082 4.33093 20.182 4.9402 21.6767 3.69804C22.6171 2.91653 24.0221 3.72767 23.8155 4.93283C23.4871 6.84836 25.1516 8.5129 27.0672 8.1845C28.2723 7.9779 29.0835 9.38291 28.302 10.3233C27.0598 11.818 27.6691 14.0918 29.4922 14.7652C30.6392 15.1889 30.6392 16.8111 29.4922 17.2348C27.6691 17.9082 27.0598 20.182 28.302 21.6767C29.0835 22.6171 28.2723 24.0221 27.0672 23.8155C25.1516 23.4871 23.4871 25.1516 23.8155 27.0672C24.0221 28.2723 22.6171 29.0835 21.6767 28.302C20.182 27.0598 17.9082 27.6691 17.2348 29.4922C16.8111 30.6392 15.1889 30.6392 14.7652 29.4922C14.0918 27.6691 11.818 27.0598 10.3233 28.302C9.38291 29.0835 7.9779 28.2723 8.1845 27.0672C8.5129 25.1516 6.84836 23.4871 4.93283 23.8155C3.72767 24.0221 2.91653 22.6171 3.69804 21.6767C4.9402 20.182 4.33093 17.9082 2.50783 17.2348C1.36082 16.8111 1.36082 15.1889 2.50783 14.7652C4.33093 14.0918 4.9402 11.818 3.69804 10.3233C2.91653 9.38291 3.72767 7.9779 4.93283 8.1845C6.84836 8.5129 8.5129 6.84836 8.1845 4.93283C7.9779 3.72767 9.38291 2.91653 10.3233 3.69804C11.818 4.9402 14.0918 4.33093 14.7652 2.50783Z" stroke="#151515" stroke-width="1.5"/>
</svg>
